:SAMPLES-PER-SECOND 30
:FULLY-SPECIFIED
:DEGREES
270
root  -40.6733 21.5212 2.00702 26.6493 -22.3761 6.04256
RightUpLeg  -80.4382 -14.2374 -38.1612
RightLeg  76.0245 5.10123 15.3686
RightFoot  -11.295 -0.168492 -1.32628
RightToes  -72.7995 -0.518021 -0.427302
Spine  22.0601 2.34695 12.475
Spine1  44.1257 11.7668 4.17546
HEad  -22.6087 -16.9591 26.7452
LeftShoulder1  0 -2.42657e-020 -4.95415e-022
LeftArm  -33.1248 -17.9254 -72.785
LeftForeArm  25.865 -26.8982 -5.1247
LeftHand  -0.206033 -7.83449 2.64054
RightShoulder  0 2.42657e-020 1.07489e-018
RightArm  -117.364 24.9324 -19.0723
RightForeArm  44.1042 21.6907 4.0007
RightHand  0.535525 23.6309 2.93033
LeftUpLeg  -38.2826 -4.01775 41.2282
LeftLeg  46.3532 8.0419 7.34207
LeftFoot  -18.0342 -0.796674 -5.01718
LeftToes  -22.0254 1.71452e-006 7.46813e-008
271
root  -41.9275 22.1678 1.4223 26.5137 -24.094 8.48555
RightUpLeg  -83.8351 -12.6456 -38.046
RightLeg  77.7528 4.61372 15.4633
RightFoot  -10.8852 -0.141238 -1.10481
RightToes  -72.5594 -0.515674 -0.426633
Spine  22.5747 2.32318 11.0987
Spine1  44.1983 10.8 3.29443
HEad  -22.9179 -16.6199 26.3633
LeftShoulder1  0 -2.42657e-020 -4.95415e-022
LeftArm  -31.132 -19.5395 -75.2831
LeftForeArm  26.4238 -27.2435 -5.20168
LeftHand  -0.200258 -7.75114 2.58777
RightShoulder  0 2.42657e-020 1.07489e-018
RightArm  -117.134 28.2718 -16.2621
RightForeArm  41.7042 29.4663 5.70104
RightHand  -0.313743 22.6066 -1.19989
LeftUpLeg  -41.0742 1.19772 33.7719
LeftLeg  51.6144 5.98433 6.58155
LeftFoot  -19.4588 -0.818997 -4.77388
LeftToes  -21.9457 1.71452e-006 7.46813e-008
272
root  -42.963 22.746 0.938276 25.2888 -24.278 11.4899
RightUpLeg  -84.5937 -12.0175 -38.5947
RightLeg  78.7256 4.26384 15.2502
RightFoot  -11.9782 -0.152087 -1.0721
RightToes  -68.9692 -0.480663 -0.424644
Spine  23.6881 1.72422 10.3232
Spine1  45.3974 8.76323 3.05393
HEad  -23.908 -16.4449 25.0455
LeftShoulder1  0 -2.42657e-020 -4.95415e-022
LeftArm  -27.5917 -23.2487 -77.8125
LeftForeArm  27.5044 -28.3335 -5.44821
LeftHand  -0.233337 -8.05631 2.94513
RightShoulder  0 2.42657e-020 1.07489e-018
RightArm  -111.804 30.4178 -14.029
RightForeArm  42.1674 34.4656 6.93792
RightHand  -2.04684 23.2234 -9.56969
LeftUpLeg  -44.6374 2.86999 26.8218
LeftLeg  56.5941 5.03063 6.60732
LeftFoot  -19.4432 -0.817067 -4.76654
LeftToes  -27.7319 1.71452e-006 7.46813e-008
273
root  -43.9984 23.1254 0.474605 24.9857 -24.54 12.8889
RightUpLeg  -86.0894 -10.8347 -37.9913
RightLeg  79.9101 3.77157 14.6806
RightFoot  -12.5879 -0.142393 -0.913483
RightToes  -68.1676 -0.472873 -0.421702
Spine  24.7507 1.84778 10.6933
Spine1  46.418 8.22668 4.78905
HEad  -22.5977 -18.0001 23.3011
LeftShoulder1  0 -2.42657e-020 -4.95415e-022
LeftArm  -23.0462 -27.7069 -81.4052
LeftForeArm  31.708 -28.3785 -5.45631
LeftHand  -0.223735 -8.8362 2.52715
RightShoulder  0 2.42657e-020 1.07489e-018
RightArm  -108.995 32.3229 -14.2911
RightForeArm  51.6918 30.9637 6.04077
RightHand  -4.0739 22.8191 -19.6254
LeftUpLeg  -47.8392 4.79751 21.8758
LeftLeg  61.1603 4.26395 6.64041
LeftFoot  -20.4994 -0.926373 -5.11977
LeftToes  -29.7339 1.71452e-006 7.46813e-008
274
root  -44.9025 23.642 0.076906 24.9576 -25.4093 13.6456
RightUpLeg  -87.2336 -9.60117 -36.7277
RightLeg  79.6948 3.13315 12.0305
RightFoot  -12.3025 -0.0820502 -0.383778
RightToes  -65.6141 -0.448159 -0.418161
Spine  24.9708 2.00093 10.5326
Spine1  45.7792 7.83074 5.8385
HEad  -18.5622 -19.0454 20.5296
LeftShoulder1  0 -2.42657e-020 -4.95415e-022
LeftArm  -19.5656 -29.2894 -84.089
LeftForeArm  32.2815 -29.8454 -5.79696
LeftHand  -0.30704 -9.33737 3.39096
RightShoulder  0 2.42657e-020 1.07489e-018
RightArm  -110.731 35.5685 -14.0751
RightForeArm  57.6784 25.1022 4.6922
RightHand  -3.7748 22.7269 -18.2588
LeftUpLeg  -50.0216 7.36162 17.0172
LeftLeg  64.1641 3.85995 6.7683
LeftFoot  -20.9761 -0.992755 -5.3589
LeftToes  -29.2148 1.71452e-006 7.46813e-008
275
root  -45.6199 24.2536 -0.0665249 23.5431 -24.7153 14.8129
RightUpLeg  -85.5226 -10.1067 -35.0831
RightLeg  78.9885 3.39277 12.396
RightFoot  -11.587 -0.0893379 -0.502971
RightToes  -64.8638 -0.44093 -0.414387
Spine  25.0438 1.30749 10.7416
Spine1  45.392 6.32795 6.10823
HEad  -15.3368 -19.3917 17.657
LeftShoulder1  0 -2.42657e-020 -4.95415e-022
LeftArm  -17.7531 -31.0688 -86.3042
LeftForeArm  30.833 -30.8862 -6.04622
LeftHand  -0.407431 -9.47565 4.54629
RightShoulder  0 2.42657e-020 1.07489e-018
RightArm  -98.1611 35.5769 -14.5069
RightForeArm  52.1635 19.4706 3.54009
RightHand  -0.495472 27.7302 -1.6375
LeftUpLeg  -50.4758 8.35519 12.1814
LeftLeg  65.1456 3.35699 6.13354
LeftFoot  -20.6357 -0.923086 -5.06726
LeftToes  -32.8897 1.71452e-006 7.46813e-008
276
root  -46.314 24.8743 -0.255777 22.3824 -24.3558 15.1849
RightUpLeg  -83.8632 -10.2538 -32.6906
RightLeg  77.7584 3.97876 13.3848
RightFoot  -11.0998 -0.122241 -0.880493
RightToes  -66.4044 -0.45579 -0.410739
Spine  24.9369 0.906996 10.3625
Spine1  44.6254 5.30589 5.94935
HEad  -12.3696 -18.561 16.7965
LeftShoulder1  0 -2.42657e-020 -4.95415e-022
LeftArm  -17.6883 -31.46 -86.7038
LeftForeArm  31.0362 -33.9212 -6.80385
LeftHand  -0.359229 -8.98751 4.20168
RightShoulder  0 2.42657e-020 1.07489e-018
RightArm  -82.8761 36.9023 -11.0205
RightForeArm  53.682 14.7889 2.63338
RightHand  3.13925 23.8129 15.1831
LeftUpLeg  -50.1664 10.367 8.49973
LeftLeg  65.0742 1.94694 3.55175
LeftFoot  -21.3708 -0.75849 -4.01823
LeftToes  -33.1498 1.71452e-006 7.46813e-008
277
root  -46.9769 25.5528 -0.254353 20.2937 -23.7112 15.4403
RightUpLeg  -80.6795 -11.2298 -29.8528
RightLeg  76.2699 4.32249 13.2633
RightFoot  -10.6927 -0.142398 -1.14406
RightToes  -64.1992 -0.434542 -0.407574
Spine  24.8085 0.316201 10.03
Spine1  43.8802 3.58924 6.56158
HEad  -10.9921 -19.5025 17.0913
LeftShoulder1  0 -2.42657e-020 -4.95415e-022
LeftArm  -16.5788 -32.2036 -86.6031
LeftForeArm  30.9243 -34.7823 -7.02903
LeftHand  -0.491393 -9.13565 5.77919
RightShoulder  0 2.42657e-020 1.07489e-018
RightArm  -96.2932 37.9358 -4.97882
RightForeArm  52.259 12.7387 2.25375
RightHand  1.96186 23.6317 9.73055
LeftUpLeg  -47.7911 12.3655 5.31321
LeftLeg  63.5858 -0.335444 -0.590809
LeftFoot  -21.4938 -0.422223 -2.22431
LeftToes  -39.1227 1.71452e-006 7.46813e-008
278
root  -47.5254 26.2133 -0.330469 19.3577 -24.0957 14.9168
RightUpLeg  -78.7983 -12.6436 -26.1059
RightLeg  73.9088 4.16737 11.2163
RightFoot  -9.4283 -0.105253 -0.898828
RightToes  -61.9791 -0.413311 -0.402992
Spine  23.7895 0.439283 9.93974
Spine1  41.8111 2.65292 8.33981
HEad  -9.47814 -21.387 15.0717
LeftShoulder1  0 -2.42657e-020 -4.95415e-022
LeftArm  -15.9677 -30.0701 -87.8371
LeftForeArm  31.6566 -36.1764 -7.40354
LeftHand  -0.462766 -8.96025 5.53531
RightShoulder  0 2.42657e-020 1.07489e-018
RightArm  -104.265 36.8669 -0.466854
RightForeArm  40.2226 14.2562 2.55425
RightHand  0.975632 22.4759 5.27881
LeftUpLeg  -45.3798 15.3173 3.3353
LeftLeg  61.2505 -2.10857 -3.32513
LeftFoot  -20.9803 -0.170964 -0.923317
LeftToes  -40.2877 1.71452e-006 7.46813e-008
279
root  -48.1125 26.7525 -0.34442 18.3734 -24.6807 13.2701
RightUpLeg  -76.5191 -14.0137 -21.653
RightLeg  72.054 1.99795 4.83094
RightFoot  -10.8136 -0.0524317 -0.176426
RightToes  -58.3339 -0.378885 -0.393698
Spine  23.0582 0.884508 10.2128
Spine1  40.5996 3.38503 9.17145
HEad  -6.34488 -21.9704 12.6262
LeftShoulder1  0 -2.42657e-020 -4.95415e-022
LeftArm  -15.0633 -27.0016 -87.4028
LeftForeArm  29.8002 -38.5599 -8.07902
LeftHand  -0.387212 -9.01751 4.54095
RightShoulder  0 2.42657e-020 1.07489e-018
RightArm  -106.6 34.7405 2.0356
RightForeArm  28.2354 15.9772 2.88931
RightHand  1.02324 21.0583 5.87296
LeftUpLeg  -40.7149 15.1415 5.87899
LeftLeg  56.4566 -1.89702 -2.50419
LeftFoot  -19.0331 -0.202262 -1.20649
LeftToes  -41.859 1.71452e-006 7.46813e-008
280
root  -48.6052 27.204 -0.296468 18.0871 -24.64 12.3325
RightUpLeg  -74.8782 -17.749 -17.5369
RightLeg  70.5851 -1.18224 -2.94492
RightFoot  -10.8239 0.0791221 1.21278
RightToes  -49.5554 -0.298953 -0.3625
Spine  21.8764 1.17301 10.3717
Spine1  39.1506 4.49776 8.79343
HEad  -3.7104 -21.2048 9.49514
LeftShoulder1  0 -2.42657e-020 -4.95415e-022
LeftArm  -14.6674 -23.7151 -86.2976
LeftForeArm  29.3449 -40.8546 -8.77378
LeftHand  -0.355516 -9.01351 4.14137
RightShoulder  0 2.42657e-020 1.07489e-018
RightArm  -106.577 33.3493 2.74583
RightForeArm  20.9475 17.0435 3.09547
RightHand  0.40872 20.0747 2.67972
LeftUpLeg  -36.2369 12.0134 8.41014
LeftLeg  50.3335 -0.903254 -0.964293
LeftFoot  -16.8883 -0.23603 -1.58982
LeftToes  -46.7337 1.71452e-006 7.46813e-008
281
root  -49.1763 27.5903 -0.2258 17.6625 -25.1285 11.7818
RightUpLeg  -73.6831 -20.8802 -13.7851
RightLeg  68.6189 -2.07953 -4.5882
RightFoot  -5.67109 0.0264223 0.911117
RightToes  -49.247 -0.296238 -0.361183
Spine  20.9346 1.71924 10.1162
Spine1  37.9047 6.20175 7.88347
HEad  -1.76124 -20.0631 6.40082
LeftShoulder1  0 -2.42657e-020 -4.95415e-022
LeftArm  -14.4387 -20.11 -84.793
LeftForeArm  30.483 -42.871 -9.42605
LeftHand  -0.364788 -9.17064 4.17928
RightShoulder  0 2.42657e-020 1.07489e-018
RightArm  -109.206 32.168 2.0979
RightForeArm  22.9765 18.4128 3.36139
RightHand  0.616234 22.8236 3.42319
LeftUpLeg  -32.753 12.5122 9.57679
LeftLeg  45.9404 -0.882571 -0.808338
LeftFoot  -14.8049 -0.195173 -1.50217
LeftToes  -46.4143 1.71452e-006 7.46813e-008
282
root  -49.8089 27.9717 -0.134947 17.1566 -25.1684 11.5666
RightUpLeg  -72.6327 -23.2881 -10.7834
RightLeg  67.1622 -0.573539 -1.28849
RightFoot  -2.81825 0.000893785 0.413986
RightToes  -46.4149 -0.271648 -0.348418
Spine  20.1274 2.14763 9.60042
Spine1  36.6733 7.44685 6.93849
HEad  1.51285 -17.3551 2.8978
LeftShoulder1  0 -2.42657e-020 -4.95415e-022
LeftArm  -14.6909 -17.084 -83.6793
LeftForeArm  29.9506 -43.8823 -9.77056
LeftHand  -0.311486 -9.35694 3.43738
RightShoulder  0 2.42657e-020 1.07489e-018
RightArm  -107.46 30.9026 2.08084
RightForeArm  19.2292 22.6336 4.21163
RightHand  1.71825 24.2063 8.37252
LeftUpLeg  -29.2769 14.4563 10.3927
LeftLeg  41.0848 -2.21089 -1.69515
LeftFoot  -11.8659 -0.111931 -1.07705
LeftToes  -48.2312 1.71452e-006 7.46813e-008
283
root  -50.5114 28.3105 -0.153289 17.5132 -24.0078 10.7178
RightUpLeg  -71.2619 -23.6799 -8.79362
RightLeg  66.312 -0.80496 -1.68598
RightFoot  -2.85884 0.00251114 0.478299
RightToes  -45.1464 -0.260844 -0.34231
Spine  18.9422 2.36834 9.10122
Spine1  34.8576 8.11871 6.0616
HEad  5.27081 -13.2856 -0.368698
LeftShoulder1  0 -2.42657e-020 -4.95415e-022
LeftArm  -15.5028 -14.1628 -83.1676
LeftForeArm  30.119 -44.2561 -9.90084
LeftHand  -0.279486 -9.4791 3.00223
RightShoulder  0 2.42657e-020 1.07489e-018
RightArm  -100.072 30.1381 3.41052
RightForeArm  22.1114 27.8338 5.33824
RightHand  1.94851 25.0124 9.14062
LeftUpLeg  -26.8813 14.6793 12.1269
LeftLeg  36.2124 -3.11368 -1.98887
LeftFoot  -8.24783 -0.0642229 -0.890733
LeftToes  -49.6716 1.71452e-006 7.46813e-008
